<svg width="150" height="150" viewBox="0 0 150 150" fill="none" xmlns="http://www.w3.org/2000/svg">
  <rect width="150" height="150" fill="white"/>
  
  <!-- Position detection patterns (the large squares in the corners) -->
  <!-- Top-left -->
  <rect x="10" y="10" width="35" height="35" fill="black"/>
  <rect x="15" y="15" width="25" height="25" fill="white"/>
  <rect x="20" y="20" width="15" height="15" fill="black"/>
  
  <!-- Top-right -->
  <rect x="105" y="10" width="35" height="35" fill="black"/>
  <rect x="110" y="15" width="25" height="25" fill="white"/>
  <rect x="115" y="20" width="15" height="15" fill="black"/>
  
  <!-- Bottom-left -->
  <rect x="10" y="105" width="35" height="35" fill="black"/>
  <rect x="15" y="110" width="25" height="25" fill="white"/>
  <rect x="20" y="115" width="15" height="15" fill="black"/>
  
  <!-- QR code data modules (simplified) -->
  <rect x="60" y="10" width="5" height="5" fill="black"/>
  <rect x="70" y="10" width="5" height="5" fill="black"/>
  <rect x="85" y="10" width="5" height="5" fill="black"/>
  
  <rect x="10" y="60" width="5" height="5" fill="black"/>
  <rect x="20" y="65" width="5" height="5" fill="black"/>
  <rect x="30" y="60" width="5" height="5" fill="black"/>
  
  <rect x="60" y="55" width="30" height="30" fill="black"/>
  <rect x="65" y="60" width="20" height="20" fill="white"/>
  <rect x="70" y="65" width="10" height="10" fill="black"/>
  
  <!-- More data modules -->
  <rect x="85" y="45" width="5" height="5" fill="black"/>
  <rect x="95" y="70" width="5" height="5" fill="black"/>
  <rect x="100" y="85" width="5" height="5" fill="black"/>
  <rect x="110" y="60" width="5" height="5" fill="black"/>
  <rect x="120" y="65" width="5" height="5" fill="black"/>
  <rect x="130" y="60" width="5" height="5" fill="black"/>
  
  <rect x="60" y="100" width="5" height="5" fill="black"/>
  <rect x="70" y="110" width="5" height="5" fill="black"/>
  <rect x="85" y="120" width="5" height="5" fill="black"/>
  <rect x="75" y="95" width="5" height="5" fill="black"/>
  <rect x="80" y="105" width="5" height="5" fill="black"/>
  <rect x="90" y="115" width="5" height="5" fill="black"/>
  <rect x="100" y="135" width="5" height="5" fill="black"/>
  <rect x="120" y="125" width="5" height="5" fill="black"/>
</svg> 